<?xml version="1.0" encoding="iso-8859-1"?>
<!-- Generator: Adobe Illustrator 18.0.0, SVG Export Plug-In . SVG Version: 6.00 Build 0)  -->
<!DOCTYPE svg PUBLIC "-//W3C//DTD SVG 1.1//EN" "http://www.w3.org/Graphics/SVG/1.1/DTD/svg11.dtd">
<svg xmlns="http://www.w3.org/2000/svg" xmlns:xlink="http://www.w3.org/1999/xlink" version="1.1" id="Capa_1" x="0px" y="0px" viewBox="0 0 49.749 49.749" style="enable-background:new 0 0 49.749 49.749;" xml:space="preserve" width="512px" height="512px">
<path d="M47.335,5.494l-0.054-0.121c-0.001-0.002-0.003-0.004-0.004-0.006c-0.094-0.206-0.223-0.391-0.372-0.563  c-0.031-0.036-0.059-0.073-0.092-0.107c-0.15-0.156-0.324-0.297-0.522-0.423c-0.037-0.023-0.077-0.044-0.116-0.066  c-0.082-0.047-0.158-0.098-0.247-0.141l-0.01,0.022c-3.31-1.572-10.919,0.621-14.781,1.922c-0.271-0.125-0.54-0.252-0.814-0.375  C21.663,1.732,8.07-2.502,6.124,1.819L6.122,1.824C6.122,1.825,6.121,1.826,6.121,1.826L6.07,1.94  C3.42,7.821,3.346,14.483,5.667,20.356c-0.554,0.639-0.97,1.243-1.249,1.812c-2.696,1.044-4.078,2.325-4.078,3.818v0.132  c0,13.03,10.601,23.631,23.63,23.631c13.03,0,23.631-10.601,23.631-23.631v-0.132c0-0.373-0.098-0.736-0.274-1.09  C50.066,18.792,50.134,11.706,47.335,5.494z M29.898,30.253c-1.91,0.128-3.902,0.196-5.926,0.196c-0.657,0-1.31-0.008-1.959-0.021  c-0.154-0.003-0.304-0.01-0.457-0.013c-0.5-0.013-0.999-0.028-1.493-0.049c-0.161-0.007-0.32-0.016-0.48-0.024  c-0.477-0.023-0.953-0.048-1.421-0.079c-0.17-0.011-0.337-0.024-0.506-0.036c-0.448-0.032-0.892-0.066-1.33-0.105  c-0.185-0.016-0.368-0.034-0.55-0.051c-0.405-0.039-0.806-0.08-1.201-0.124c-0.206-0.023-0.412-0.047-0.615-0.072  c-0.356-0.043-0.705-0.089-1.051-0.137c-0.225-0.031-0.45-0.062-0.67-0.095c-0.321-0.048-0.635-0.1-0.946-0.152  c-0.219-0.037-0.44-0.072-0.655-0.111c-0.305-0.055-0.599-0.114-0.893-0.173c-0.169-0.034-0.343-0.067-0.508-0.103  c-0.331-0.393-0.646-0.797-0.947-1.21c-0.106-0.146-0.201-0.299-0.304-0.447c-0.19-0.274-0.381-0.548-0.557-0.83  c-0.015-0.024-0.028-0.049-0.043-0.073c0.916,0.099,1.982,0.073,3.149-0.052l0.051,0.018l0.232-0.027  c4.168-0.492,9.818-2.195,15.726-4.708c0.634-0.268,1.256-0.536,1.85-0.803c0.482-0.217,0.977-0.448,1.478-0.686  c0.33-0.156,0.656-0.313,0.982-0.471l0.006,0.002l0.388-0.19c0.164-0.081,0.324-0.163,0.487-0.245  c0.231-0.115,0.461-0.23,0.689-0.346c0.385-0.197,0.764-0.394,1.141-0.593c0.16-0.085,0.323-0.168,0.482-0.253  c0.546-0.293,1.082-0.587,1.606-0.884c0.041-0.023,0.08-0.047,0.122-0.07c0.479-0.272,0.948-0.546,1.406-0.82  c0.14-0.083,0.275-0.167,0.413-0.251c0.356-0.216,0.705-0.432,1.047-0.648c0.154-0.098,0.307-0.195,0.458-0.293  c0.328-0.211,0.646-0.422,0.959-0.634c0.135-0.091,0.273-0.182,0.405-0.273c0.43-0.296,0.849-0.591,1.248-0.884l1.151-0.848  l-0.045-0.03c1.561-1.237,2.851-2.47,3.672-3.635c0.003,0.011,0.008,0.021,0.011,0.032c0.021,0.069,0.037,0.14,0.057,0.209  c0.103,0.357,0.2,0.715,0.284,1.075c0.034,0.146,0.062,0.294,0.093,0.44c0.061,0.286,0.119,0.571,0.168,0.858  c0.029,0.167,0.052,0.336,0.076,0.504c0.039,0.27,0.075,0.54,0.104,0.811c0.019,0.174,0.035,0.348,0.049,0.522  c0.022,0.268,0.039,0.536,0.051,0.805c0.008,0.173,0.016,0.346,0.02,0.519c0.006,0.276,0.004,0.552,0,0.828  c-0.003,0.164-0.003,0.327-0.009,0.49c-0.012,0.308-0.034,0.615-0.059,0.921c-0.011,0.129-0.016,0.259-0.029,0.388  c-0.043,0.436-0.098,0.871-0.168,1.304c-0.007,0.044-0.018,0.088-0.025,0.132c-0.065,0.387-0.139,0.774-0.225,1.157  c-0.032,0.142-0.07,0.282-0.105,0.424c-0.07,0.285-0.141,0.569-0.223,0.852c-0.047,0.163-0.099,0.324-0.15,0.486  c-0.081,0.259-0.165,0.517-0.256,0.773c-0.059,0.167-0.122,0.334-0.186,0.5c-0.096,0.25-0.196,0.498-0.301,0.744  c-0.07,0.163-0.14,0.326-0.213,0.488c-0.072,0.158-0.151,0.313-0.226,0.469c-0.222,0.458-0.459,0.904-0.708,1.339  c-0.034,0.059-0.066,0.118-0.1,0.177c-0.016,0.027-0.031,0.055-0.047,0.082c-0.289,0.49-0.591,0.967-0.911,1.422  C40.61,28.942,35.627,29.869,29.898,30.253z M6.921,5.363c2.896,4.115,11.508,9.089,18.094,12.056  c1.087,0.49,2.182,0.95,3.276,1.394c-0.243,0.112-0.472,0.224-0.72,0.336c-1.568,0.707-3.125,1.357-4.646,1.945  c-0.021,0.008-0.041,0.015-0.062,0.023c-0.702,0.27-1.395,0.526-2.079,0.769c-0.369,0.13-0.72,0.245-1.077,0.365  c-0.301,0.101-0.604,0.206-0.9,0.302c-0.554,0.177-1.091,0.341-1.613,0.494c-0.064,0.019-0.129,0.039-0.192,0.057  c-2.457,0.708-4.545,1.137-6.227,1.35c-0.3-0.112-0.579-0.223-0.828-0.333c-0.4-0.568-0.77-1.168-1.119-1.787  c-0.039-0.069-0.078-0.137-0.117-0.206c-0.348-0.634-0.673-1.289-0.963-1.967l-0.017-0.039C5.755,15.468,5.448,10.23,6.921,5.363z   M29.502,7.459c0.595,0.268,1.173,0.547,1.754,0.823c0.477,0.227,0.953,0.455,1.42,0.688c0.336,0.167,0.665,0.337,0.995,0.506  c0.458,0.235,0.916,0.469,1.36,0.708c0.362,0.194,0.711,0.391,1.064,0.587c0.387,0.215,0.781,0.43,1.155,0.646  c0.712,0.412,1.407,0.827,2.07,1.244c-0.54,0.374-1.107,0.755-1.719,1.145c-0.098,0.062-0.196,0.124-0.295,0.186  c-0.121,0.076-0.253,0.154-0.377,0.231c-0.467,0.288-0.938,0.576-1.43,0.863c-0.155,0.091-0.321,0.183-0.48,0.274  c-0.534,0.306-1.08,0.611-1.639,0.913c-0.164,0.089-0.329,0.177-0.495,0.266c-0.01,0.005-0.02,0.011-0.03,0.016  c-0.58,0.308-1.173,0.614-1.775,0.916c-0.111,0.056-0.222,0.111-0.334,0.167c-1.631-0.623-3.281-1.309-4.91-2.043  C13.075,9.846,7.325,4.022,7.947,2.641C8.571,1.261,16.741,1.71,29.502,7.459z M6.016,23.585c0.014-0.071,0.03-0.143,0.058-0.224  c0.086-0.252,0.24-0.565,0.515-0.959c0.011,0.021,0.024,0.041,0.035,0.063c0.237,0.462,0.49,0.917,0.759,1.365  c0.044,0.073,0.084,0.149,0.129,0.222c0.115,0.187,0.239,0.37,0.36,0.554c-1.064-0.061-1.699-0.291-1.856-0.638l-0.001-0.001  c-0.027-0.062-0.032-0.149-0.024-0.247C5.993,23.681,6.007,23.63,6.016,23.585z M45.125,5.906c0.039,0.02,0.077,0.044,0.116,0.07  c0.026,0.018,0.05,0.036,0.072,0.054c0.054,0.045,0.102,0.096,0.134,0.155c0.003,0.006,0.01,0.011,0.012,0.017  c0.316,0.73-1.134,2.682-4.406,5.197c-0.334-0.216-0.674-0.432-1.021-0.647c-0.118-0.073-0.237-0.146-0.357-0.219  c-1.188-0.726-2.446-1.444-3.762-2.149c-0.017-0.009-0.034-0.018-0.05-0.027c-0.689-0.368-1.391-0.732-2.108-1.091  C40.592,5.181,44.065,5.343,45.125,5.906z M4.08,24.483c0.03,0.104,0.068,0.206,0.113,0.306l-0.001,0  c0.001,0.002,0.002,0.005,0.003,0.007l0.001,0.002l0.05,0.11c0.251,0.557,0.528,1.102,0.822,1.638  c0.097,0.176,0.206,0.346,0.307,0.52c0.207,0.355,0.417,0.708,0.643,1.052c0.037,0.056,0.067,0.115,0.104,0.171  c-2.062-0.669-3.073-1.331-3.504-1.798c-0.005-0.006-0.012-0.012-0.017-0.019c-0.055-0.061-0.098-0.118-0.135-0.172  c-0.026-0.041-0.053-0.082-0.07-0.118c-0.01-0.021-0.017-0.04-0.024-0.06c-0.018-0.05-0.032-0.099-0.032-0.137  C2.341,25.711,2.74,25.142,4.08,24.483z M45.5,28.229c-1.064,10.94-10.313,19.52-21.529,19.52c-10.979,0-20.073-8.221-21.45-18.83  c0.063,0.038,0.145,0.072,0.211,0.109c0.215,0.12,0.441,0.236,0.677,0.348c0.138,0.065,0.281,0.129,0.429,0.193  c0.288,0.125,0.586,0.244,0.893,0.357c0.11,0.041,0.222,0.08,0.336,0.12c0.408,0.142,0.828,0.275,1.257,0.399  c0.041,0.012,0.08,0.023,0.121,0.035c0.562,0.16,1.135,0.307,1.709,0.439l0.002,0.002l0.268,0.059l0.053,0.012  c0.494,0.109,1.008,0.213,1.541,0.312c0.003,0.001,0.007,0.001,0.01,0.002c0.007,0.001,0.013,0.003,0.02,0.004  c0.016,0.003,0.033,0.005,0.049,0.008c0.106,0.02,0.219,0.037,0.327,0.056c0.441,0.078,0.887,0.153,1.345,0.223  c0.172,0.026,0.35,0.05,0.525,0.075c0.416,0.06,0.836,0.118,1.265,0.171c0.172,0.021,0.348,0.041,0.522,0.061  c0.447,0.052,0.898,0.101,1.357,0.145c0.168,0.016,0.336,0.032,0.505,0.047c0.475,0.043,0.955,0.082,1.441,0.117  c0.166,0.012,0.332,0.024,0.5,0.035c0.493,0.033,0.992,0.061,1.495,0.085c0.17,0.009,0.338,0.018,0.509,0.025  c0.509,0.022,1.022,0.039,1.539,0.052c0.168,0.005,0.334,0.011,0.503,0.015c0.675,0.014,1.355,0.023,2.04,0.023  c8.668,0,16.551-1.177,20.572-3.071l0.233-0.109l0.151-0.209c0.007-0.009,0.013-0.019,0.019-0.029  C45.136,28.769,45.32,28.502,45.5,28.229z" fill="#e8667e"/>
<g>
</g>
<g>
</g>
<g>
</g>
<g>
</g>
<g>
</g>
<g>
</g>
<g>
</g>
<g>
</g>
<g>
</g>
<g>
</g>
<g>
</g>
<g>
</g>
<g>
</g>
<g>
</g>
<g>
</g>
</svg>
